<?xml version="1.0" encoding="UTF-8" standalone="no"?>
<!DOCTYPE svg PUBLIC "-//W3C//DTD SVG 1.1//EN"
 "http://www.w3.org/Graphics/SVG/1.1/DTD/svg11.dtd">
<!-- Generated by graphviz version 2.43.0 (0)
 -->
<!-- Title: qpalm_free Pages: 1 -->
<svg width="407pt" height="135pt"
 viewBox="0.00 0.00 407.00 134.50" xmlns="http://www.w3.org/2000/svg" xmlns:xlink="http://www.w3.org/1999/xlink">
<g id="graph0" class="graph" transform="scale(1 1) rotate(0) translate(4 130.5)">
<title>qpalm_free</title>
<!-- Node1 -->
<g id="Node000001" class="node">
<title>Node1</title>
<g id="a_Node000001"><a xlink:title=" ">
<polygon fill="#999999" stroke="#666666" points="399,-65.5 327,-65.5 327,-46.5 399,-46.5 399,-65.5"/>
<text text-anchor="middle" x="363" y="-53.5" font-family="Helvetica,sans-Serif" font-size="10.00">qpalm_free</text>
</a>
</g>
</g>
<!-- Node2 -->
<g id="Node000002" class="node">
<title>Node2</title>
<g id="a_Node000002"><a xlink:href="group__solver-grp.html#ga856ef78171b77f0f526a8d4255e15223" target="_top" xlink:title="Cleanup the workspace by deallocating memory.">
<polygon fill="white" stroke="#666666" points="271,-103.5 180,-103.5 180,-84.5 271,-84.5 271,-103.5"/>
<text text-anchor="middle" x="225.5" y="-91.5" font-family="Helvetica,sans-Serif" font-size="10.00">qpalm_cleanup</text>
</a>
</g>
</g>
<!-- Node1&#45;&gt;Node2 -->
<g id="edge1_Node000001_Node000002" class="edge">
<title>Node1&#45;&gt;Node2</title>
<g id="a_edge1_Node000001_Node000002"><a xlink:title=" ">
<path fill="none" stroke="#63b8ff" d="M318.08,-68.32C299.46,-73.54 278.09,-79.53 260.68,-84.41"/>
<polygon fill="#63b8ff" stroke="#63b8ff" points="319.12,-71.66 327.81,-65.59 317.23,-64.92 319.12,-71.66"/>
</a>
</g>
</g>
<!-- Node4 -->
<g id="Node000004" class="node">
<title>Node4</title>
<g id="a_Node000004"><a xlink:href="qpalm__fortran_8c.html#abec01161fcee665e126347b862c404c4" target="_top" xlink:title=" ">
<polygon fill="white" stroke="#666666" points="110,-67.5 14,-67.5 14,-48.5 110,-48.5 110,-67.5"/>
<text text-anchor="middle" x="62" y="-55.5" font-family="Helvetica,sans-Serif" font-size="10.00">qpalm_fortran_c</text>
</a>
</g>
</g>
<!-- Node1&#45;&gt;Node4 -->
<g id="edge4_Node000001_Node000004" class="edge">
<title>Node1&#45;&gt;Node4</title>
<g id="a_edge4_Node000001_Node000004"><a xlink:title=" ">
<path fill="none" stroke="#63b8ff" d="M316.53,-56.3C260.73,-56.68 166.59,-57.31 110.07,-57.69"/>
<polygon fill="#63b8ff" stroke="#63b8ff" points="316.85,-59.8 326.82,-56.24 316.8,-52.8 316.85,-59.8"/>
</a>
</g>
</g>
<!-- Node5 -->
<g id="Node000005" class="node">
<title>Node5</title>
<g id="a_Node000005"><a xlink:href="group__solver-grp.html#ga349f4343b96fb674a823ae6e03634ff7" target="_top" xlink:title="Update the settings to the new settings.">
<polygon fill="white" stroke="#666666" points="291,-26.5 160,-26.5 160,-7.5 291,-7.5 291,-26.5"/>
<text text-anchor="middle" x="225.5" y="-14.5" font-family="Helvetica,sans-Serif" font-size="10.00">qpalm_update_settings</text>
</a>
</g>
</g>
<!-- Node1&#45;&gt;Node5 -->
<g id="edge5_Node000001_Node000005" class="edge">
<title>Node1&#45;&gt;Node5</title>
<g id="a_edge5_Node000001_Node000005"><a xlink:title=" ">
<path fill="none" stroke="#63b8ff" d="M319.14,-43.66C299.96,-38.14 277.68,-31.73 259.77,-26.58"/>
<polygon fill="#63b8ff" stroke="#63b8ff" points="318.27,-47.06 328.85,-46.46 320.21,-40.33 318.27,-47.06"/>
</a>
</g>
</g>
<!-- Node3 -->
<g id="Node000003" class="node">
<title>Node3</title>
<g id="a_Node000003"><a xlink:href="structqpalm_1_1alloc_1_1qpalm__workspace__cleaner.html#a0153941f8aa59d256f436151041815ef" target="_top" xlink:title=" ">
<polygon fill="white" stroke="#666666" points="123,-126.5 1,-126.5 1,-85.5 123,-85.5 123,-126.5"/>
<text text-anchor="start" x="9" y="-114.5" font-family="Helvetica,sans-Serif" font-size="10.00">qpalm::alloc::qpalm</text>
<text text-anchor="start" x="9" y="-103.5" font-family="Helvetica,sans-Serif" font-size="10.00">_workspace_cleaner::</text>
<text text-anchor="middle" x="62" y="-92.5" font-family="Helvetica,sans-Serif" font-size="10.00">operator()</text>
</a>
</g>
</g>
<!-- Node2&#45;&gt;Node3 -->
<g id="edge2_Node000002_Node000003" class="edge">
<title>Node2&#45;&gt;Node3</title>
<g id="a_edge2_Node000002_Node000003"><a xlink:title=" ">
<path fill="none" stroke="#63b8ff" d="M169.79,-98.06C154.78,-99.18 138.43,-100.4 123.13,-101.53"/>
<polygon fill="#63b8ff" stroke="#63b8ff" points="170.23,-101.54 179.94,-97.31 169.71,-94.56 170.23,-101.54"/>
</a>
</g>
</g>
<!-- Node2&#45;&gt;Node4 -->
<g id="edge3_Node000002_Node000004" class="edge">
<title>Node2&#45;&gt;Node4</title>
<g id="a_edge3_Node000002_Node000004"><a xlink:title=" ">
<path fill="none" stroke="#63b8ff" d="M171.74,-82.24C150.37,-77.48 126.01,-72.05 105.77,-67.53"/>
<polygon fill="#63b8ff" stroke="#63b8ff" points="171.12,-85.69 181.64,-84.45 172.65,-78.86 171.12,-85.69"/>
</a>
</g>
</g>
<!-- Node6 -->
<g id="Node000006" class="node">
<title>Node6</title>
<g id="a_Node000006"><a xlink:href="classqpalm_1_1Solver.html#a895c0635d6fdd0a3026894697ea6903b" target="_top" xlink:title=" ">
<polygon fill="white" stroke="#666666" points="124,-30 0,-30 0,0 124,0 124,-30"/>
<text text-anchor="start" x="8" y="-18" font-family="Helvetica,sans-Serif" font-size="10.00">qpalm::Solver::update</text>
<text text-anchor="middle" x="62" y="-7" font-family="Helvetica,sans-Serif" font-size="10.00">_settings</text>
</a>
</g>
</g>
<!-- Node5&#45;&gt;Node6 -->
<g id="edge6_Node000005_Node000006" class="edge">
<title>Node5&#45;&gt;Node6</title>
<g id="a_edge6_Node000005_Node000006"><a xlink:title=" ">
<path fill="none" stroke="#63b8ff" d="M149.73,-16.07C141.15,-15.97 132.48,-15.86 124.1,-15.76"/>
<polygon fill="#63b8ff" stroke="#63b8ff" points="149.7,-19.57 159.74,-16.2 149.79,-12.57 149.7,-19.57"/>
</a>
</g>
</g>
</g>
</svg>
